# xmcd
#
# Track frame offsets: 
#        150
#        16492
#        35742
#        60007
#        88575
#        109322
#        132992
#        156682
#        180127
#
# Disc length: 2636 seconds
#
# Revision: 4
# Processed by: cddbd v1.5.2PL0 Copyright (c) Steve Scherf et al.
# Submitted via: ExactAudioCopy v0.99pb4
#
DISCID=6f0a4a09
DTITLE=Muddy Waters - The Muddy Waters Woodstock Album
DYEAR=1975
DGENRE=Blues
TTITLE0=Why Are People Like That
TTITLE1=Going Down To Main Street
TTITLE2=Born With Nothing
TTITLE3=Caldonia
TTITLE4=Funny Sounds
TTITLE5=Love, Deep As The Ocean
TTITLE6=Let The Good Times Roll
TTITLE7=Kansas City
TTITLE8=Fox Squirrel
EXTD=CHD 9359\n\nRecorded at Bearsville's Studio at Turtle Creek, New 
EXTD=York, February 6 and 7, 1975.\n\nMuddy Waters:  vocals and guitar\nPi
EXTD=netop Perkins:  piano, vocals on "Kansas City" and "Caledonia"\nP
EXTD=aul Butterfield:  harmonica\nBob Margolin:  guitar\nGarth Hudson:
EXTD=organ, accordion, and saxophone\nLevon Helm:  drums and bass\nFre
EXTD=d Carter:  bass and guitar\nHoward Johnson:  saxophone\n\nSubmitted
EXTD=6/20/97\n[Jmccoy@efn.org] YEAR: 1995 ID3G:   0
EXTT0=
EXTT1=
EXTT2=
EXTT3=
EXTT4=
EXTT5=
EXTT6=
EXTT7=
EXTT8=
PLAYORDER=
